<svg xmlns="http://www.w3.org/2000/svg" viewBox="0 0 1440 320"><path fill="#0099ff" fill-opacity="1" d="M0,160L26.7,165.3C53.3,171,107,181,160,160C213.3,139,267,85,320,90.7C373.3,96,427,160,480,197.3C533.3,235,587,245,640,245.3C693.3,245,747,235,800,208C853.3,181,907,139,960,112C1013.3,85,1067,75,1120,90.7C1173.3,107,1227,149,1280,170.7C1333.3,192,1387,192,1413,192L1440,192L1440,320L1413.3,320C1386.7,320,1333,320,1280,320C1226.7,320,1173,320,1120,320C1066.7,320,1013,320,960,320C906.7,320,853,320,800,320C746.7,320,693,320,640,320C586.7,320,533,320,480,320C426.7,320,373,320,320,320C266.7,320,213,320,160,320C106.7,320,53,320,27,320L0,320Z"></path></svg>